<svg width="36" height="36" viewBox="0 0 36 36" fill="none" xmlns="http://www.w3.org/2000/svg">
<path d="M29.3672 30.073H6.63455C5.07168 30.073 3.79297 28.7943 3.79297 27.2314V8.76114C3.79297 7.19827 5.07168 5.91956 6.63455 5.91956H29.3672C30.9301 5.91956 32.2088 7.19827 32.2088 8.76114V27.2314C32.2088 28.7943 30.9301 30.073 29.3672 30.073Z" fill="#005197"/>
<path d="M25.8153 14.4443C26.9923 14.4443 27.9465 13.4902 27.9465 12.3131C27.9465 11.1361 26.9923 10.1819 25.8153 10.1819C24.6382 10.1819 23.6841 11.1361 23.6841 12.3131C23.6841 13.4902 24.6382 14.4443 25.8153 14.4443Z" fill="#FFF9C4"/>
<path d="M15.1593 12.3131L7.34497 23.6794H22.9737L15.1593 12.3131Z" fill="#38A2DE"/>
<path d="M22.9737 16.5755L17.2905 23.6795H28.6569L22.9737 16.5755Z" fill="#68C0F2"/>
</svg>
